<svg xmlns="http://www.w3.org/2000/svg" viewBox="0 0 516 154"><path fill="#409eff" fill-rule="nonzero" d="M374.875 66.088c.137-.101.278-.192.425-.275.733-.466 1.483-.7 2.25-.7.8 0 1.616.333 2.45 1 1.233 1 1.85 2.3 1.85 3.9v.55a19.28 19.28 0 01-.3 1.9c-.289 1.444-.756 3.21-1.4 5.3l-2.3 7.1c-2.533 9.267-3.899 16.65-4.1 22.15v1.15c0 3.199.366 5.649 1.1 7.35.152.371.335.696.55.975.63.843 1.53 1.301 2.7 1.375h.3c1.068 0 2.16-.291 3.275-.875.878-.466 1.77-1.107 2.675-1.925.7-.666 1.533-1.583 2.5-2.75l2.05-2.75c1.634-2.2 3.317-4.8 5.051-7.8l4.699-8.1.2-.301c.233-.833.5-1.649.8-2.449 2.101-5.733 4.983-10.7 8.65-14.9 2.356-2.663 4.906-4.855 7.65-6.575a30.202 30.202 0 016.399-3.025c2.5-.767 4.851-1.15 7.05-1.15 2.834 0 5.5.617 8 1.85 4.801 2.4 7.517 6.417 8.15 12.05v.725c-.026.974-.377 1.766-1.05 2.375a3.182 3.182 0 01-1.125.725c-.487.184-1.046.275-1.675.275-1.2 0-2.233-.35-3.101-1.05-.967-.767-1.517-1.783-1.649-3.05-.233-2.333-1.483-3.9-3.75-4.7-1.101-.4-2.301-.6-3.601-.6-.866 0-1.833.1-2.899.3-2.167.459-4.251 1.326-6.25 2.6-2.22 1.417-4.336 3.333-6.351 5.75a37.142 37.142 0 00-6.95 12.55c-1 3.066-1.5 5.983-1.5 8.75 0 1.867.233 3.684.7 5.45.244.932.561 1.79.95 2.575 1.453 2.846 3.92 4.688 7.4 5.524 1.3.334 2.649.5 4.05.5 2.733 0 5.467-.649 8.2-1.949a33.327 33.327 0 002.5-1.325c7.134-4.122 13.584-11.098 19.35-20.925.066-.134.15-.25.25-.351a2.82 2.82 0 01.15-.5c2.633-8.033 6.8-14.65 12.5-19.85 1.64-1.503 3.307-2.786 5-3.85 4.04-2.533 8.224-3.8 12.55-3.8l2.2.1c3.866.3 7.066 1.867 9.6 4.7 2.401 2.658 3.651 5.808 3.75 9.45v.7c0 4.967-1.85 9.767-5.55 14.4-2.205 2.787-4.722 4.987-7.55 6.6-3.161 1.783-6.712 2.833-10.65 3.15l-2.5.1c-4.167 0-8.35-.8-12.55-2.4l-.05.95-.051 1.351c0 3.114.542 5.706 1.625 7.774a10.35 10.35 0 002.426 3.025c1.833 1.467 4.1 2.35 6.8 2.649l1.899.051c1.9 0 3.717-.284 5.45-.851 1.938-.589 3.855-1.431 5.75-2.524 2.921-1.677 5.787-3.952 8.601-6.825 3.8-3.834 7.283-8.483 10.449-13.95l.301-.4c5-8.966 7.55-18.667 7.649-29.1v-.55c0-11.133-2.95-20.5-8.85-28.1-5.934-7.567-14.45-12.233-25.55-14-3.534-.467-7.434-.7-11.7-.7l-11.8.4a301.06 301.06 0 00-23.65 1.95c-11.033 1.267-24.4 3.683-40.1 7.25l-39.65 9.6c-8.134 1.867-15.833 3.383-23.1 4.55-.067.155-.134.313-.2.475a298.209 298.209 0 01-1.65 3.675l-3.6 7.55c-5.5 11.4-12.816 25.05-21.95 40.95.181 5.609.947 10.301 2.3 14.075.145.405.295.797.45 1.175.866 1.934 1.85 3.384 2.95 4.351.366.3.767.533 1.2.699.466.2.899.301 1.3.301l.5-.051a7.364 7.364 0 002.2-.725c1.114-.576 2.197-1.451 3.25-2.625l3.05-4.05.85-1.351c1.367-2.1 2.851-4.649 4.45-7.649l4.3-7.8c.134-.233.3-.45.5-.65 2.334-6.5 5.983-12.316 10.95-17.45 2.4-2.484 4.867-4.518 7.4-6.1 4.474-2.8 9.157-4.2 14.05-4.2h.35c6.888.063 11.904 3.255 15.05 9.575.152.317.303.642.45.975l2.2-6.4.6-1.35c.407-.861.899-1.52 1.478-1.974zm-27.15 49.75c2.826-1.581 5.535-4.09 8.125-7.525 2.101-2.8 4.167-6.233 6.2-10.3.934-2.033 1.7-3.767 2.3-5.2l1.95-4.75c.6-1.399 1.2-3.05 1.8-4.95l-.7.101c-.6 0-1.216-.134-1.85-.4-1.134-.467-1.917-1.316-2.35-2.55-1.134-3.233-3.167-5.25-6.101-6.05-.8-.233-1.733-.35-2.8-.35-1.9 0-3.934.467-6.1 1.4a24.988 24.988 0 00-3.525 1.85c-4.404 2.784-8.195 7.05-11.375 12.8a34.197 34.197 0 00-3.1 7.25c-.967 3.033-1.483 5.866-1.551 8.5v.699c0 2.776.534 5.052 1.601 6.825 1.373 2.28 3.623 3.738 6.75 4.375 1.066.2 2.133.3 3.2.3 2.594-.001 5.103-.675 7.526-2.025zm49.6-2.851l-.575.825c-3.413 4.891-6.979 8.383-10.7 10.476-.889.507-1.789.933-2.7 1.274-1.6.601-3.166.9-4.7.9-1.433 0-2.916-.267-4.449-.8-3.101-1.101-5.384-3.084-6.851-5.95-1.3-2.601-2.033-5.684-2.2-9.25v-.95c-.331.51-.664 1.01-1 1.5-3.241 4.705-6.675 8.372-10.3 11-.696.488-1.404.938-2.125 1.35-3.628 2.067-7.503 3.101-11.625 3.101-.934 0-2.033-.084-3.3-.25-6.733-.867-11.517-3.983-14.35-9.351a19.753 19.753 0 01-1.45-3.5 41.65 41.65 0 01-.8 1.2c-.322.479-.64.93-.95 1.351-2.819 4.103-5.77 7.011-8.851 8.725-2.199 1.217-4.466 1.825-6.8 1.825h-.399c-6.034-.2-10.517-3.884-13.45-11.05-.9-2.334-1.634-4.851-2.2-7.551-.295.374-.595.74-.9 1.101-3.004 3.665-6.204 6.832-9.6 9.5a45.089 45.089 0 01-5.25 3.575c-5.072 2.949-10.173 4.425-15.3 4.425-1.133 0-2.483-.117-4.05-.351-8.066-1.267-13.367-5.3-15.9-12.1a23.31 23.31 0 01-1.4-6.15l.95-8.25-8.45-2.8a25.33 25.33 0 01-.275.851 57.194 57.194 0 01-2.325 6.05l-5.5 9.7c-3.246 4.585-6.837 8.002-10.775 10.25-.47.265-.945.515-1.425.75-2.833 1.366-5.767 2.05-8.8 2.05-1.4 0-2.967-.167-4.7-.5-4.9-1.033-8.767-3.351-11.6-6.95-1.6-1.967-2.784-4.2-3.55-6.7-.066.066-.133.15-.2.25-.204.321-.404.638-.6.95-2.68 4.083-5.214 7.116-7.6 9.1a20.708 20.708 0 01-2.975 2.051c-2.167 1.199-4.359 1.8-6.575 1.8-.733 0-1.567-.084-2.5-.25-5.267-1-8.233-4.65-8.9-10.95-.1-.9-.15-1.85-.15-2.85 0-4.167.783-9.15 2.35-14.95l2.5-8.851c1-3.433 1.7-6.333 2.1-8.699.2-1.234.3-2.484.3-3.75v-.7c0-1.034-.1-1.6-.3-1.7a.883.883 0 00-.4-.1c-.3 0-.784.217-1.45.65l-.125.1-1.825 1.6c-1.733 1.433-3.716 3.616-5.95 6.55-3.567 4.566-7.5 10.5-11.8 17.8a363.697 363.697 0 00-5.2 9.301l-6.5 12c-.5.899-1.067 1.767-1.7 2.6-.702.858-1.452 1.467-2.25 1.825a4.233 4.233 0 01-1.75.375 3.91 3.91 0 01-1.25-.2c-1.6-.4-2.816-1.467-3.65-3.2-.6-1.267-1.05-2.899-1.35-4.899-.4-2.801-.6-5.9-.6-9.301v-.35c-.331.255-.664.497-1 .725-.558.389-1.125.747-1.7 1.075-2.281 1.301-4.681 2.117-7.2 2.45a23.8 23.8 0 00-.05.45c-.852 6.561-3.135 12.61-6.85 18.149-3.768 5.548-8.626 10.057-14.575 13.525a50.609 50.609 0 01-5.125 2.625c-8.3 3.7-17.283 5.55-26.95 5.55-13.333-.133-24.15-3.133-32.45-9C4.816 137.263 0 128.213 0 116.913v-1.551c.333-7.699 2.6-15 6.8-21.899 2.569-4.248 5.877-7.64 9.925-10.175 2.469-1.542 5.21-2.768 8.225-3.676 4.1-1.2 8.217-1.8 12.35-1.8 4.267 0 8.667.784 13.2 2.351 4.533 1.566 9.65 4.267 15.35 8.1l14.85 9.95c3.689 2.41 7.09 4.127 10.2 5.149.368.13.735.247 1.1.351-.7-6.9-3.2-12.8-7.5-17.7-4.3-4.967-9.784-8.6-16.45-10.9l-6.4-2.2c-5.867-2.066-10.233-4.1-13.1-6.1-7.733-5.233-12.033-12.417-12.9-21.55l-.15-2.7c0-8.8 3.566-16.167 10.7-22.1a34.459 34.459 0 013.875-2.8c5.495-3.433 11.77-5.15 18.825-5.15 6.6 0 12.517 1.9 17.75 5.7 5.107 3.717 8.066 8.942 8.875 15.675.029.205.054.413.075.625l.15 2.75c0 5.1-1.317 9.467-3.95 13.1-1.866 2.511-3.583 4.152-5.15 4.925-.695.35-1.361.525-2 .525a11.585 11.585 0 01-1.2-.15l-.7.65-.75.725-7.9 7.375a6.491 6.491 0 01-.725.35c-1.107.408-1.882.141-2.325-.8-.533-.6-.483-1.35.15-2.25l.05-.05c.133-.2.316-.417.55-.65l8.7-8.2a8.724 8.724 0 01-.2-1.35c0-1.133.45-2.083 1.35-2.85 3.8-3.4 5.7-7.317 5.7-11.75 0-4.4-1.667-8.1-5-11.1s-7.883-4.533-13.65-4.6c-5.52 0-10.287 1.275-14.3 3.825a23.283 23.283 0 00-3.45 2.675c-4.633 4.333-6.95 9.533-6.95 15.6 0 2.633.542 5.125 1.625 7.475.94 2.03 2.282 3.955 4.025 5.775 3.733 3.9 9.5 6.967 17.3 9.2a62.982 62.982 0 016.1 2.1 59.613 59.613 0 013.975 1.775c6.136 3.079 11.127 7.12 14.975 12.125 4.324 5.587 7.04 11.754 8.15 18.5.205 1.263.355 2.546.45 3.85.196-.061.388-.127.575-.2.636-.23 1.261-.514 1.875-.85 2.967-1.644 5.733-4.56 8.3-8.75.034-.333.067-.684.1-1.05l1-8.3c2.2-16.434 5.25-30.734 9.15-42.9l2.4-7.5c1.1-2.933 2.2-5.533 3.3-7.8 2.715-5.623 5.949-9.639 9.7-12.05l.5-.3c1.966-1.2 4-1.8 6.1-1.8l1 .1c2.7.267 4.784 1.434 6.25 3.5 1.3 1.867 1.95 4.184 1.95 6.95l-.05 1.95a40.576 40.576 0 01-.8 4.75l-1.25 4.4c-2.267 7.333-6.433 16.983-12.5 28.95-4.566 9.2-10.733 20.534-18.5 34l-.2 3.3c-.267 3.1-.4 6.116-.4 9.05v1.25c3.8-7.066 6.867-12.533 9.2-16.4 4.233-7.066 8.133-12.899 11.7-17.5 2.1-2.633 3.867-4.65 5.3-6.05 1.295-1.294 2.595-2.361 3.9-3.2a16.066 16.066 0 012.65-1.4 10.007 10.007 0 014.25-.95c.8 0 1.567.1 2.3.3 2.333.567 4.083 1.85 5.25 3.85.991 1.652 1.491 3.727 1.5 6.225V76.113c0 1.133-.117 2.3-.35 3.5l-5.65 23.95a48.908 48.908 0 00-.8 3.75c-.367 2.134-.55 3.983-.55 5.55 0 .9.033 1.551.1 1.95.103 1.182.627 1.998 1.575 2.45.291.131.616.231.975.3l1.8-.1c.355-.066.664-.158.925-.275.139-.05.264-.108.375-.175 1.533-.934 3.133-2.467 4.8-4.6l3.55-5.7a205.2 205.2 0 003.7-6.5l3.5-6.25a48.744 48.744 0 012.5-6.851c2.733-6.066 6.5-11.083 11.3-15.05a32.16 32.16 0 013.4-2.425c3.483-2.19 7.167-3.549 11.05-4.075l1.95-.3c.867-.067 1.5-.1 1.9-.1 3.033 0 6.017.733 8.95 2.2 5.572 2.742 8.68 7.492 9.325 14.25.083.882.125 1.799.125 2.75l-.1 1.801a40.844 40.844 0 01-.15 2l1.775.6 5.925 2.025.7.225c2.6-7.2 6.533-13.217 11.8-18.05 1.636-1.49 3.294-2.766 4.975-3.825 4.076-2.55 8.284-3.825 12.625-3.825l2.15.1c3.866.3 7.066 1.867 9.6 4.7 2.402 2.658 3.652 5.808 3.75 9.45v.7c0 4.967-1.85 9.767-5.55 14.4-2.183 2.799-4.69 4.999-7.524 6.6-3.143 1.784-6.684 2.835-10.625 3.15l-2.5.1c-3.5 0-7.017-.566-10.55-1.7a4.388 4.388 0 01-.35-.1l-.6-.2a37.662 37.662 0 01-1.05-.4v.051a6.78 6.78 0 00-.1.899v1.351c0 3.114.542 5.706 1.625 7.774a10.363 10.363 0 002.425 3.025c1.833 1.467 4.1 2.35 6.8 2.649l1.85.051c1.934 0 3.767-.284 5.5-.851 1.938-.589 3.854-1.431 5.75-2.524 2.92-1.677 5.787-3.952 8.6-6.825 3.5-3.533 6.834-7.934 10-13.2v-1.85c.167-5.9 1.017-13.634 2.55-23.2 1.367-8.167 3.017-15.55 4.95-22.15h-2.2c-9.399 0-17.1-.966-23.1-2.9-6.767-2.133-12.783-5.433-18.05-9.9-5.833-4.933-9.817-10.483-11.95-16.65-.2-.5-.3-.983-.3-1.45a3.1 3.1 0 01.55-1.8c.067-.133.15-.25.25-.35l-.5-1.125-2.175-4.9-.525-1.175-1.85-4.2a4.712 4.712 0 01-.075-.725c-.031-.598.069-1.064.3-1.4.243-.358.634-.566 1.175-.625.767-.3 1.467 0 2.1.9l.05.05c.133.2.267.45.4.75l4.85 10.85c.667.033 1.233.167 1.7.4 1.066.434 1.85 1.284 2.35 2.55l.05.25c.867 1.733 1.4 2.767 1.6 3.1 1.667 2.9 3.867 5.617 6.6 8.15 8.367 7.8 19.967 11.7 34.8 11.7h.351c1.879 0 3.787-.042 5.725-.125.255-.004.513-.013.775-.025 2.233-5.933 4.767-11.083 7.6-15.45 1.7-2.667 3.417-4.784 5.15-6.35a20.17 20.17 0 012.625-2.075c1.423-.921 2.864-1.546 4.325-1.875.899-.233 1.783-.35 2.649-.35 2.5 0 4.584.917 6.25 2.75 1.867 2.067 2.8 4.667 2.8 7.8v.2l-.05 1.05c-.267 3.4-1 7.05-2.2 10.95 1-.167 2.017-.35 3.051-.55l.25-.05a615.248 615.248 0 0018.8-4.05l18.85-4.65c33.566-8.367 63.05-12.85 88.45-13.45l3.65-.05c14.3 0 25.383 2.317 33.25 6.95 8.633 5 14.949 12.383 18.949 22.15a54.573 54.573 0 013.275 10.975c.684 3.642 1.025 7.417 1.025 11.325 0 2.1-.101 4.217-.301 6.35-.966 9.866-3.85 19.066-8.649 27.6-.134.233-.267.45-.4.65-4.967 8.366-10.616 15.017-16.95 19.95a46.151 46.151 0 01-5.274 3.6c-5.054 2.934-10.129 4.4-15.226 4.4-1.1 0-2.466-.117-4.1-.351-8.066-1.267-13.366-5.3-15.9-12.1-.466-1.2-.816-2.45-1.05-3.75-.304.353-.611.702-.925 1.05-3.961 4.412-8.186 7.929-12.675 10.55a43.938 43.938 0 01-4.8 2.4c-3.5 1.467-7 2.2-10.5 2.2-1.4 0-2.867-.134-4.4-.4-5.5-.899-9.767-3.383-12.8-7.45-1.533-2-2.65-4.283-3.351-6.85-.274.412-.549.82-.825 1.225zM461.6 94.963c2.283.633 4.583.95 6.9.95l2.1-.051c2.521-.249 4.779-.924 6.775-2.024 2.551-1.4 4.676-3.492 6.375-6.275 1.033-1.633 1.75-3.25 2.149-4.85a9.805 9.805 0 00.351-2.65c0-.9-.15-1.75-.45-2.55-.934-2.333-2.85-3.55-5.75-3.65h-.35c-2.2 0-4.483.566-6.851 1.7-.855.414-1.689.872-2.5 1.375-3.798 2.411-7.031 5.886-9.7 10.425a43.898 43.898 0 00-2.949 6.2 29.305 29.305 0 003.9 1.4zM311.25 37.488c1.347-.157 2.714-.332 4.1-.525.263-.029.529-.062.8-.1.2-.5.384-1 .551-1.5l1-2.95c.399-1.3.683-2.316.85-3.05.6-2.067.95-4.117 1.05-6.15 0-1.067-.416-1.6-1.25-1.6l-.8.1c-.51.136-1.043.411-1.6.825-1.079.79-2.246 2.099-3.5 3.925-1.5 2.2-2.917 4.7-4.25 7.5-.634 1.3-1.25 2.65-1.851 4.05 1.608-.153 3.242-.327 4.9-.525zm-61.775 57.475c2.281.633 4.573.95 6.875.95l2.101-.051c2.548-.235 4.831-.91 6.85-2.024 2.54-1.393 4.657-3.484 6.35-6.275 1.067-1.666 1.767-3.283 2.101-4.85.267-.8.399-1.684.399-2.65 0-.9-.149-1.75-.449-2.55-.934-2.333-2.867-3.55-5.801-3.65h-.3c-2.2 0-4.483.566-6.85 1.7-.856.414-1.689.872-2.5 1.375-3.798 2.411-7.032 5.886-9.7 10.425a37.582 37.582 0 00-2.95 6.2c.667.3 1.333.566 2 .8.622.222 1.247.422 1.874.6zm53.35-47.525c-2.714 8.309-4.772 17.684-6.176 28.125l-.024.2-.226 1.65c5.334-9.733 9.617-18 12.851-24.8 1.1-2.267 2.116-4.45 3.05-6.55l-3.8.4c-1.9.167-3.733.316-5.5.45l-.175.525zM208.85 81.263c.338.124.705.241 1.1.35l10.05 3.4 1 .35v-.5c0-5.966-2.333-9.533-7-10.7-1.133-.267-2.1-.4-2.9-.4-1.593 0-2.943.408-4.05 1.225a6.82 6.82 0 00-1.5 1.575c-.838 2.064.262 3.631 3.3 4.7zm27.925-74.725l.475 1.1 2.2 5.025c.104-.113.221-.213.35-.3.303-.209.67-.326 1.1-.35l-4.8-10.7c-.4-.1-.7-.1-.9 0-.206.088-.348.272-.425.55a.969.969 0 00-.025.1l2.025 4.575zm-.175-5.325l4.05 9.15.6-.35-4.35-8.9-.3.1zm-95.2 20.849c-1.659 1.256-3.375 3.422-5.15 6.5-4.067 7.3-7.784 18.55-11.15 33.75-.55 2.576-1.216 5.91-2 10-.11.613-.227 1.246-.35 1.9 5.633-10.333 10.183-19.35 13.65-27.05l4.8-10.95c1.6-4.3 2.55-8.15 2.85-11.55l.15-1.7c0-.5-.05-.95-.15-1.35l-.05-.2-.15-.25h-.55l-.1.1-.3.15-.4.05h-.1v-.05c-.331.18-.664.397-1 .65zM80.35 57.863c0-.767-.45-.767-1.35 0-.434.4-.983.967-1.65 1.7-.233.167-.716.617-1.45 1.35-.767.8-1.15 1.283-1.15 1.45l.05.35c.2.066.333.1.4.1.033 0 .9-.8 2.6-2.4 1.7-1.6 2.55-2.45 2.55-2.55zm0-3.15c0-.667-1.4.25-4.2 2.75-2.8 2.533-4.2 3.9-4.2 4.1 0 .3.167.45.5.45.033 0 2.667-2.433 7.9-7.3zm-6.2 8.599c0-.267-.133-.4-.4-.4-.3 0-.567.15-.8.45-.533-.033-.917.033-1.15.2-.1.067-.15.133-.15.2 0 .2.133.35.4.45h.9c.8-.299 1.2-.599 1.2-.9zm-63.9 63c1.694 4.206 4.594 7.756 8.7 10.65 6.967 4.967 16.517 7.45 28.65 7.45 9.534 0 17.567-1.7 24.1-5.101.65-.34 1.284-.69 1.9-1.05 5.594-3.261 10.01-7.41 13.25-12.45 2.7-4.267 4.367-8.733 5-13.399-2.2-.567-4.233-1.25-6.1-2.051-4.2-1.699-9.417-4.666-15.65-8.899l-10.25-6.95c-4.333-2.767-8.283-4.833-11.85-6.2-3.6-1.333-7.133-2-10.6-2h-1.5c-5.523.292-10.282 1.7-14.275 4.226-2.381 1.505-4.489 3.414-6.325 5.725-4.567 5.7-6.85 12.434-6.85 20.2 0 3.61.6 6.893 1.8 9.849zm177.6-14.299c1.322 2.542 3.422 4.259 6.3 5.15 1.367.399 2.7.6 4 .6 2.212 0 4.388-.592 6.525-1.775 1.374-.765 2.732-1.773 4.075-3.024l1.5-1.5 5-7.25c.533-1 1-1.934 1.4-2.8.433-.867.8-1.65 1.1-2.351a67.474 67.474 0 001.7-4.95l-20.25-6.649c-2.2-1.334-3.65-3.167-4.35-5.5-.293.338-.577.68-.85 1.024-2.87 3.571-5.003 7.68-6.4 12.325-.933 3.101-1.4 6.066-1.4 8.9 0 1.3.1 2.566.3 3.8.283 1.51.733 2.843 1.35 4z"/></svg>
